<?xml version="1.0" encoding="UTF-8"?>
<svg version="1.1" xmlns="http://www.w3.org/2000/svg" width="474" height="474">
<path d="M0 0 C0.59425781 0.45890625 1.18851563 0.9178125 1.80078125 1.390625 C17.36392414 13.84113931 29.25719978 34.77676627 34 54 C34 55.32 34 56.64 34 58 C30.73348625 59.03502777 27.46122637 60.05053935 24.1875 61.0625 C23.25873047 61.35705078 22.32996094 61.65160156 21.37304688 61.95507812 C20.0340332 62.3659668 20.0340332 62.3659668 18.66796875 62.78515625 C17.43469849 63.17006226 17.43469849 63.17006226 16.17651367 63.56274414 C14 64 14 64 11 63 C9.7890625 60.19140625 9.7890625 60.19140625 8.625 56.5625 C6.19059008 49.2695145 3.16307355 42.58025967 -0.8125 36 C-2 34 -2 34 -2 32 C-2.66 32 -3.32 32 -4 32 C-5.48046875 30.2421875 -5.48046875 30.2421875 -7.1875 27.875 C-10.74261643 23.15963637 -14.6414046 18.6792977 -20 16 C-20 15.34 -20 14.68 -20 14 C-20.70253906 13.72929687 -21.40507812 13.45859375 -22.12890625 13.1796875 C-25.13272934 11.94546359 -28.01779997 10.54619068 -30.9375 9.125 C-54.84930226 -1.85354303 -84.93405863 -3.46175091 -110 5 C-119.17387421 8.59904448 -127.67053414 13.37294128 -135 20 C-135.598125 20.51820313 -136.19625 21.03640625 -136.8125 21.5703125 C-142.25706812 26.60167679 -146.08458178 32.7523544 -150 39 C-150.51046875 39.77214844 -151.0209375 40.54429687 -151.546875 41.33984375 C-153.49510474 44.90636109 -154.74001729 48.58216482 -156 52.4375 C-156.26200195 53.23518799 -156.52400391 54.03287598 -156.79394531 54.85473633 C-159.0304376 61.81975262 -160.74139419 68.79010577 -162 76 C-162.20496094 77.08410156 -162.40992188 78.16820312 -162.62109375 79.28515625 C-167.56538838 109.53059998 -164.59971373 145.91838497 -148.8125 172.81640625 C-147 176 -147 176 -147 178 C-146.34 178 -145.68 178 -145 178 C-142.89836648 180.7202962 -141.00223819 183.55564191 -139.0703125 186.3984375 C-137.1002334 188.87404633 -135.91448318 189.9152372 -133 191 C-133 191.66 -133 192.32 -133 193 C-132.27554688 193.26167969 -131.55109375 193.52335938 -130.8046875 193.79296875 C-127.93395965 195.02842126 -125.67816019 196.51892485 -123.125 198.3125 C-102.05528188 211.78927449 -73.16784734 212.40672101 -49.375 207.25 C-38.97068252 204.76790194 -29.94669908 201.40293382 -21.7421875 194.35546875 C-20 193 -20 193 -18 193 C-18 192.34 -18 191.68 -18 191 C-16.35697047 189.31002677 -14.68528688 187.64783606 -13 186 C-3.12497227 175.1374695 -0.26953844 163.87879344 -0.625 149.4921875 C-1.20728808 139.60576776 -5.8514844 131.66387048 -13 125 C-14.65360731 123.65050438 -16.31771136 122.31356784 -18 121 C-18.41958984 122.59714844 -18.41958984 122.59714844 -18.84765625 124.2265625 C-21.85729995 135.26575668 -25.60608576 145.40912863 -32 155 C-32.66 155 -33.32 155 -34 155 C-34.268125 155.598125 -34.53625 156.19625 -34.8125 156.8125 C-35.99917406 158.99847854 -37.09599113 160.41332594 -39 162 C-39.66 162 -40.32 162 -41 162 C-41 162.66 -41 163.32 -41 164 C-58.75905925 173.85114989 -75.28004874 176.18467353 -95 171 C-102.17720662 168.61951215 -107.83321498 165.56489576 -113 160 C-113.54785156 159.42636719 -114.09570312 158.85273438 -114.66015625 158.26171875 C-123.94416583 147.83983614 -125.87267223 136.71290209 -125.19091797 123.15136719 C-124.205496 112.04709812 -117.46888112 103.72952603 -109.25 96.75 C-91.93438872 83.65262786 -70.80920169 83.88729862 -50 85 C-47.99525713 85.30350804 -45.99323567 85.62835139 -44 86 C-44.42402836 80.91165974 -45.62320632 77.28087074 -48.0625 72.796875 C-49 71 -49 71 -50 68 C-50.99 67.67 -51.98 67.34 -53 67 C-53 66.34 -53 65.68 -53 65 C-54.99508067 64.31875294 -56.99638693 63.65572791 -59 63 C-60.051875 62.649375 -61.10375 62.29875 -62.1875 61.9375 C-73.11406287 59.25064028 -83.45861718 59.13536432 -93.4375 64.8125 C-96.99427267 67.11394114 -99.66873615 69.39713768 -102 73 C-103.98 72.67 -105.96 72.34 -108 72 C-108 71.34 -108 70.68 -108 70 C-108.72574219 69.74476563 -109.45148438 69.48953125 -110.19921875 69.2265625 C-113.1552984 67.93198926 -115.30564666 66.39544896 -117.8125 64.375 C-118.60269531 63.74335938 -119.39289063 63.11171875 -120.20703125 62.4609375 C-120.79871094 61.97882813 -121.39039063 61.49671875 -122 61 C-120.75888656 57.54516981 -119.41180798 54.95504965 -117 52.1875 C-116.484375 51.58292969 -115.96875 50.97835937 -115.4375 50.35546875 C-114 49 -114 49 -112 49 C-112 48.34 -112 47.68 -112 47 C-95.1684637 36.65536236 -78.45644631 32.32600268 -58.640625 36.75 C-49.09458904 39.43902421 -40.62833072 43.45106779 -34 51 C-33.52046875 51.50015625 -33.0409375 52.0003125 -32.546875 52.515625 C-22.11144481 63.79432227 -18.49048691 79.01562504 -18 94 C-17.11699219 94.268125 -16.23398437 94.53625 -15.32421875 94.8125 C-2.07864178 99.54417497 10.22020499 110.78574788 17 123 C24.4509263 138.93504771 26.20115318 155.85404358 22 173 C21.79375 173.85207031 21.5875 174.70414063 21.375 175.58203125 C15.99581061 195.47891926 -0.12157687 212.10491975 -17.61328125 222.25390625 C-46.73985014 237.27071858 -82.98783067 238.8755968 -114.26171875 229.6015625 C-128.12417568 225.11978041 -139.93022033 218.39795078 -151 209 C-151.89847656 208.30519531 -152.79695313 207.61039063 -153.72265625 206.89453125 C-156.48579643 204.59586404 -158.05664245 202.00906976 -160 199 C-160.62261719 198.39542969 -161.24523437 197.79085937 -161.88671875 197.16796875 C-178.86657307 179.7487097 -186.13526689 150.39177866 -188 127 C-188.06558105 126.25121582 -188.13116211 125.50243164 -188.19873047 124.73095703 C-190.19832677 100.71182548 -188.90877524 76.14928412 -182 53 C-181.81066895 52.32130859 -181.62133789 51.64261719 -181.42626953 50.94335938 C-177.49166388 36.86161284 -170.77147141 22.97078681 -161 12 C-160.14277344 11.01257813 -159.28554687 10.02515625 -158.40234375 9.0078125 C-148.38832578 -2.34952813 -148.38832578 -2.34952813 -142 -6 C-141.34 -6 -140.68 -6 -140 -6 C-140 -6.66 -140 -7.32 -140 -8 C-96.0380107 -31.59812505 -39.93861767 -32.67023885 0 0 Z M-98.8125 119.50390625 C-101.80611897 123.27547226 -102.51473253 127.08361744 -102.37890625 131.8828125 C-101.44085757 137.12428038 -97.97235659 141.34825646 -94.125 144.875 C-88.34102245 148.80810473 -82.41752076 149.36596036 -75.625 149.3125 C-74.50182373 149.30404053 -74.50182373 149.30404053 -73.35595703 149.29541016 C-65.0553308 149.11319689 -58.72900059 147.53229917 -52.5625 141.72265625 C-44.603434 132.94778598 -42.63519451 122.52111431 -42 111 C-59.2420996 106.38010728 -85.75631068 105.27691734 -98.8125 119.50390625 Z " fill="#020202" transform="translate(314,132)"/>
<path d="M0 0 C-0.33 0.99 -0.66 1.98 -1 3 C-0.195625 3.5775 0.60875 4.155 1.4375 4.75 C3.97866739 6.98126893 4.65120368 7.74456771 5 11 C1.47400278 11 1.02707839 10.46519566 -1.5 8.1875 C-2.0878125 7.66542969 -2.675625 7.14335937 -3.28125 6.60546875 C-4.89041906 5.10235856 -6.45386747 3.5676066 -8 2 C-8.66 1.34 -9.32 0.68 -10 0 C-6.22996568 -2.61002376 -4.07631429 -1.66758312 0 0 Z " fill="#090909" transform="translate(304,147)"/>
<path d="M0 0 C0.99 0.33 1.98 0.66 3 1 C3 1.66 3 2.32 3 3 C2.01 3 1.02 3 0 3 C0 4.65 0 6.3 0 8 C-1.65 8.33 -3.3 8.66 -5 9 C-3.375 2.25 -3.375 2.25 0 0 Z " fill="#080808" transform="translate(172,126)"/>
<path d="M0 0 C0.99 0.33 1.98 0.66 3 1 C3 1.66 3 2.32 3 3 C2.34 3 1.68 3 1 3 C0.67 3.66 0.34 4.32 0 5 C-0.66 5.66 -1.32 6.32 -2 7 C-2.33 7.66 -2.66 8.32 -3 9 C-4.32 9 -5.64 9 -7 9 C-7 7 -7 7 -4.625 4.5 C-3.75875 3.675 -2.8925 2.85 -2 2 C-1.34 1.34 -0.68 0.68 0 0 Z " fill="#0A0909" transform="translate(303,316)"/>
<path d="M0 0 C0.66 0.33 1.32 0.66 2 1 C2 1.99 2 2.98 2 4 C-1 6.1875 -1 6.1875 -4 8 C-4.66 7.34 -5.32 6.68 -6 6 C-5.34 6 -4.68 6 -4 6 C-4 4.68 -4 3.36 -4 2 C-2.125 0.9375 -2.125 0.9375 0 0 Z " fill="#0A0A0A" transform="translate(216,195)"/>
<path d="M0 0 C0.66 0.66 1.32 1.32 2 2 C1.525625 2.5775 1.05125 3.155 0.5625 3.75 C-0.9484867 5.92582084 -1.54036151 7.42602448 -2 10 C-2.99 10 -3.98 10 -5 10 C-5.99 10.495 -5.99 10.495 -7 11 C-5.5140084 6.40693504 -3.14985318 3.56430755 0 0 Z " fill="#0B0B0B" transform="translate(264,269)"/>
<path d="M0 0 C0.33 0.66 0.66 1.32 1 2 C-0.65 3.32 -2.3 4.64 -4 6 C-4 5.01 -4 4.02 -4 3 C-2 1.3125 -2 1.3125 0 0 Z M-7 5 C-6.34 5.33 -5.68 5.66 -5 6 C-6.65 7.65 -8.3 9.3 -10 11 C-10 8 -10 8 -8.5 6.3125 C-7.7575 5.6628125 -7.7575 5.6628125 -7 5 Z " fill="#0A0A0A" transform="translate(209,226)"/>
<path d="M0 0 C0.99 0.33 1.98 0.66 3 1 C0.30351311 3.69648689 -2.66611962 5.14784424 -6 7 C-5.34 5.68 -4.68 4.36 -4 3 C-3.34 3 -2.68 3 -2 3 C-2 2.34 -2 1.68 -2 1 C-1.34 0.67 -0.68 0.34 0 0 Z " fill="#0B0A0B" transform="translate(204,178)"/>
<path d="M0 0 C0.66 0.66 1.32 1.32 2 2 C1.625 4.125 1.625 4.125 1 6 C0.01 6 -0.98 6 -2 6 C-2.33 5.01 -2.66 4.02 -3 3 C-2.01 2.01 -1.02 1.02 0 0 Z " fill="#090909" transform="translate(323,250)"/>
<path d="M0 0 C0.99 0.66 1.98 1.32 3 2 C2.01 2.99 1.02 3.98 0 5 C-0.33 4.67 -0.66 4.34 -1 4 C-1.66 4.66 -2.32 5.32 -3 6 C-3 4.35 -3 2.7 -3 1 C-2.01 1.33 -1.02 1.66 0 2 C0 1.34 0 0.68 0 0 Z " fill="#0A0A0A" transform="translate(324,323)"/>
</svg>
